# xmcd
#
# Track frame offsets: 
#        150
#        16260
#        31210
#        51267
#        68442
#        85495
#        104887
#        119900
#        143902
#        166322
#        180905
#        190745
#        203675
#        219250
#        229255
#
# Disc length: 3191 seconds
#
# Revision: 0
# Processed by: cddbd v1.5.2PL0 Copyright (c) Steve Scherf et al.
# Submitted via: ExactAudioCopy v0.95b4
#
DISCID=d00c750f
DTITLE=Luther Ingram - If Loving You Is Wrong
DYEAR=1972
DGENRE=R&B
TTITLE0=(If Loving You Is Wrong) I Don't Want To Be Right
TTITLE1=I'll Be Your Shelter (In Time Of Storm)
TTITLE2=Always
TTITLE3=Dying and Crying
TTITLE4=Help Me Love
TTITLE5=I'm Trying To Sing A Message To You
TTITLE6=I Remember
TTITLE7=I'll Love You Until The End
TTITLE8=Love Ain't Gonna Run Me Away
TTITLE9=I Can't Stop
TTITLE10=Oh Baby, You Can Depend On Me
TTITLE11=I'll Just Call You Honey
TTITLE12=Missing You
TTITLE13=You Got To Give Love To Get Love
TTITLE14=Since You Don't Want Me
EXTD=
EXTT0=
EXTT1=
EXTT2=
EXTT3=
EXTT4=
EXTT5=
EXTT6=
EXTT7=
EXTT8=
EXTT9=
EXTT10=
EXTT11=
EXTT12=
EXTT13=
EXTT14=
PLAYORDER=
